<svg width="209" height="60" viewBox="0 0 209 60" fill="none" xmlns="http://www.w3.org/2000/svg">
<path d="M22.128 42.384C22.96 42.384 23.648 42.656 24.192 43.2C24.768 43.712 25.056 44.384 25.056 45.216C25.056 46.016 24.768 46.688 24.192 47.232C23.648 47.744 22.96 48 22.128 48H6.528C5.696 48 4.992 47.728 4.416 47.184C3.872 46.608 3.6 45.904 3.6 45.072V17.328C3.6 16.496 3.888 15.808 4.464 15.264C5.04 14.688 5.776 14.4 6.672 14.4C7.472 14.4 8.16 14.688 8.736 15.264C9.312 15.808 9.6 16.496 9.6 17.328V42.384H22.128ZM35.4971 45.072C35.4971 45.904 35.2251 46.608 34.6811 47.184C34.1371 47.728 33.4491 48 32.6171 48C31.7851 48 31.0971 47.728 30.5531 47.184C30.0091 46.608 29.7371 45.904 29.7371 45.072V25.248C29.7371 24.416 30.0091 23.728 30.5531 23.184C31.0971 22.608 31.7851 22.32 32.6171 22.32C33.4491 22.32 34.1371 22.608 34.6811 23.184C35.2251 23.728 35.4971 24.416 35.4971 25.248V45.072ZM32.5691 19.2C31.4811 19.2 30.7131 19.024 30.2651 18.672C29.8171 18.32 29.5931 17.696 29.5931 16.8V15.888C29.5931 14.992 29.8331 14.368 30.3131 14.016C30.7931 13.664 31.5611 13.488 32.6171 13.488C33.7371 13.488 34.5211 13.664 34.9691 14.016C35.4171 14.368 35.6411 14.992 35.6411 15.888V16.8C35.6411 17.728 35.4011 18.368 34.9211 18.72C34.4731 19.04 33.6891 19.2 32.5691 19.2ZM62.2009 21.84C63.0329 21.84 63.7209 22.112 64.2649 22.656C64.8089 23.2 65.0809 23.904 65.0809 24.768V45.072C65.0809 45.904 64.8089 46.608 64.2649 47.184C63.7209 47.728 63.0329 48 62.2009 48C61.3689 48 60.6809 47.728 60.1369 47.184C59.6249 46.64 59.3529 45.952 59.3209 45.12C58.5209 46.048 57.4329 46.848 56.0569 47.52C54.7129 48.16 53.2889 48.48 51.7849 48.48C49.5769 48.48 47.5769 47.92 45.7849 46.8C43.9929 45.648 42.5689 44.064 41.5129 42.048C40.4889 40.032 39.9769 37.744 39.9769 35.184C39.9769 32.624 40.4889 30.336 41.5129 28.32C42.5369 26.272 43.9289 24.688 45.6889 23.568C47.4809 22.416 49.4489 21.84 51.5929 21.84C53.1289 21.84 54.5689 22.128 55.9129 22.704C57.2569 23.248 58.3929 23.952 59.3209 24.816V24.768C59.3209 23.936 59.5929 23.248 60.1369 22.704C60.6809 22.128 61.3689 21.84 62.2009 21.84ZM52.5049 43.2C54.5849 43.2 56.2809 42.448 57.5929 40.944C58.9049 39.408 59.5609 37.488 59.5609 35.184C59.5609 32.88 58.9049 30.96 57.5929 29.424C56.2809 27.888 54.5849 27.12 52.5049 27.12C50.4569 27.12 48.7769 27.888 47.4649 29.424C46.1529 30.96 45.4969 32.88 45.4969 35.184C45.4969 37.488 46.1369 39.408 47.4169 40.944C48.7289 42.448 50.4249 43.2 52.5049 43.2ZM100.939 21.84C104.107 21.84 106.299 22.816 107.515 24.768C108.731 26.688 109.339 29.36 109.339 32.784V45.072C109.339 45.904 109.067 46.608 108.523 47.184C107.979 47.728 107.291 48 106.459 48C105.627 48 104.939 47.728 104.395 47.184C103.851 46.608 103.579 45.904 103.579 45.072V32.784C103.579 31.024 103.227 29.648 102.523 28.656C101.851 27.632 100.651 27.12 98.9231 27.12C97.1311 27.12 95.7231 27.664 94.6991 28.752C93.7071 29.808 93.2111 31.152 93.2111 32.784V45.072C93.2111 45.904 92.9391 46.608 92.3951 47.184C91.8511 47.728 91.1631 48 90.3311 48C89.4991 48 88.8111 47.728 88.2671 47.184C87.7231 46.608 87.4511 45.904 87.4511 45.072V32.784C87.4511 31.024 87.0991 29.648 86.3951 28.656C85.7231 27.632 84.5231 27.12 82.7951 27.12C81.0031 27.12 79.5951 27.664 78.5711 28.752C77.5791 29.808 77.0831 31.152 77.0831 32.784V45.072C77.0831 45.904 76.8111 46.608 76.2671 47.184C75.7231 47.728 75.0351 48 74.2031 48C73.3711 48 72.6831 47.728 72.1391 47.184C71.5951 46.608 71.3231 45.904 71.3231 45.072V25.248C71.3231 24.416 71.5951 23.728 72.1391 23.184C72.6831 22.608 73.3711 22.32 74.2031 22.32C75.0351 22.32 75.7231 22.608 76.2671 23.184C76.8111 23.728 77.0831 24.416 77.0831 25.248V26.016C77.9471 24.864 79.0351 23.888 80.3471 23.088C81.6911 22.256 83.1791 21.84 84.8111 21.84C88.8431 21.84 91.4191 23.6 92.5391 27.12C93.2751 25.776 94.3791 24.56 95.8511 23.472C97.3551 22.384 99.0511 21.84 100.939 21.84Z" fill="black"/>
<path d="M118.117 47.952C117.189 47.952 116.469 47.712 115.957 47.232C115.477 46.72 115.237 46 115.237 45.072V44.256C115.237 43.328 115.477 42.624 115.957 42.144C116.469 41.632 117.189 41.376 118.117 41.376H118.741C119.669 41.376 120.373 41.632 120.853 42.144C121.365 42.624 121.621 43.328 121.621 44.256V45.072C121.621 46 121.365 46.72 120.853 47.232C120.373 47.712 119.669 47.952 118.741 47.952H118.117ZM148.31 12.48C149.142 12.48 149.83 12.752 150.374 13.296C150.918 13.84 151.19 14.544 151.19 15.408V45.072C151.19 45.904 150.918 46.608 150.374 47.184C149.83 47.728 149.142 48 148.31 48C147.478 48 146.79 47.728 146.246 47.184C145.734 46.64 145.462 45.952 145.43 45.12C144.63 46.048 143.542 46.848 142.166 47.52C140.822 48.16 139.398 48.48 137.894 48.48C135.686 48.48 133.686 47.92 131.894 46.8C130.102 45.648 128.678 44.064 127.622 42.048C126.598 40.032 126.086 37.744 126.086 35.184C126.086 32.624 126.598 30.336 127.622 28.32C128.646 26.272 130.038 24.688 131.798 23.568C133.59 22.416 135.558 21.84 137.702 21.84C139.238 21.84 140.678 22.128 142.022 22.704C143.366 23.248 144.502 23.952 145.43 24.816V15.408C145.43 14.576 145.702 13.888 146.246 13.344C146.79 12.768 147.478 12.48 148.31 12.48ZM138.614 43.2C140.694 43.2 142.39 42.448 143.702 40.944C145.014 39.408 145.67 37.488 145.67 35.184C145.67 32.88 145.014 30.96 143.702 29.424C142.39 27.888 140.694 27.12 138.614 27.12C136.566 27.12 134.886 27.888 133.574 29.424C132.262 30.96 131.606 32.88 131.606 35.184C131.606 37.488 132.246 39.408 133.526 40.944C134.838 42.448 136.534 43.2 138.614 43.2ZM180.473 34.56C180.441 35.328 180.137 35.952 179.561 36.432C178.985 36.912 178.313 37.152 177.545 37.152H161.705C162.089 39.04 162.969 40.528 164.345 41.616C165.721 42.672 167.273 43.2 169.001 43.2C170.313 43.2 171.337 43.088 172.073 42.864C172.809 42.608 173.385 42.352 173.801 42.096C174.249 41.808 174.553 41.616 174.713 41.52C175.289 41.232 175.833 41.088 176.345 41.088C177.017 41.088 177.593 41.328 178.073 41.808C178.553 42.288 178.793 42.848 178.793 43.488C178.793 44.352 178.345 45.136 177.449 45.84C176.553 46.576 175.353 47.2 173.849 47.712C172.345 48.224 170.825 48.48 169.289 48.48C166.601 48.48 164.249 47.92 162.233 46.8C160.249 45.68 158.713 44.144 157.625 42.192C156.537 40.208 155.993 37.984 155.993 35.52C155.993 32.768 156.569 30.352 157.721 28.272C158.873 26.192 160.393 24.608 162.281 23.52C164.169 22.4 166.185 21.84 168.329 21.84C170.441 21.84 172.425 22.416 174.281 23.568C176.169 24.72 177.673 26.272 178.793 28.224C179.913 30.176 180.473 32.288 180.473 34.56ZM168.329 27.12C164.617 27.12 162.425 28.864 161.753 32.352H174.329V32.016C174.201 30.672 173.545 29.52 172.361 28.56C171.177 27.6 169.833 27.12 168.329 27.12ZM204.77 22.368C205.538 22.368 206.178 22.624 206.69 23.136C207.202 23.616 207.458 24.224 207.458 24.96C207.458 25.344 207.33 25.824 207.074 26.4L198.098 46.176C197.874 46.72 197.538 47.152 197.09 47.472C196.674 47.792 196.194 47.968 195.65 48L195.218 48.048C194.674 48.048 194.162 47.888 193.682 47.568C193.234 47.216 192.882 46.752 192.626 46.176L183.698 26.4C183.474 25.888 183.362 25.376 183.362 24.864C183.362 24.224 183.634 23.648 184.178 23.136C184.722 22.592 185.394 22.32 186.194 22.32C186.802 22.32 187.362 22.48 187.874 22.8C188.386 23.12 188.77 23.568 189.026 24.144L195.65 39.312L202.226 24.192C202.482 23.584 202.834 23.12 203.282 22.8C203.73 22.48 204.226 22.336 204.77 22.368Z" fill="#C5C5C5"/>
</svg>
