<?xml version="1.0" encoding="utf-8"?>
<!-- Generator: Adobe Illustrator 23.0.1, SVG Export Plug-In . SVG Version: 6.00 Build 0)  -->
<svg version="1.1" id="Layer_1" xmlns="http://www.w3.org/2000/svg" xmlns:xlink="http://www.w3.org/1999/xlink" x="0px" y="0px"
	 viewBox="0 0 100 100" style="enable-background:new 0 0 100 100;" xml:space="preserve">
<style type="text/css">
	.st0{fill:none;}
	.st1{fill:#FFFFFF;}
</style>
<g>
	<path class="st0" d="M67.7,52.3c0,1.4,0.7,1.6,1.3,1.6c0.5,0,1-0.5,1.4-1.1c0-0.3,0.1-0.5,0.1-0.8l1.3-6.1
		c-0.4-0.3-0.8-0.4-1.1-0.4C69,45.6,67.7,49.2,67.7,52.3z"/>
	<path class="st0" d="M46.9,46.6c-0.1-0.7-0.3-1.2-1-1.2c-2.1,0-3.1,4.7-3.1,6.5c0,1.4,0.6,1.7,1.5,1.7c1.4,0,2.2-2.2,2.4-4.4
		c-0.7,0-1-0.5-1-1C45.9,47.5,46.3,46.8,46.9,46.6z"/>
	<path class="st1" d="M52.1,55.7l1.9-8.9c0.5-0.5,0.9-0.7,1.6-0.7c0.7,0,0,1.5,1.3,1.5c1.1,0,1.7-1,1.7-1.8c0-0.9-0.6-1.5-1.6-1.5
		c-1,0-1.9,0.5-2.7,1.1l0.2-1.1h-3.3l-0.6,2.8c-0.4,0.3-0.8,0.5-1.4,0.5c-0.3,0-0.5-0.1-0.7-0.2c0-1.7-0.6-3.3-2.8-3.3
		c-3.2,0-6,2.4-6,8c0,2.7,1.1,3.7,3.5,3.7c2.3,0,4.8-2.3,5.2-6.8c0.7-0.2,1.3-0.5,1.9-0.8l-1.6,7.5H52.1z M46.9,49.2
		c-0.3,2.2-1.1,4.4-2.4,4.4c-0.9,0-1.5-0.4-1.5-1.7c0-1.8,0.9-6.5,3.1-6.5c0.6,0,0.9,0.4,1,1.2c-0.6,0.2-1,0.9-1,1.6
		C45.9,48.7,46.2,49.2,46.9,49.2z"/>
	<path class="st1" d="M50,2C23.6,2,2,23.5,2,50s21.5,48,48,48c6.9,0,13.5-1.5,19.4-4.1c0,0,0,0,0,0c1.6,1.2,3.9,1.5,5.6,0.4
		c1.2-0.7,2.4-1.5,3.6-2.2c0.5-0.3,0.6-0.8,0.3-1.2c-1.8-2.9-3.6-5.8-5.4-8.7c-0.3-0.5-0.8-0.6-1.3-0.3c-1.1,0.7-2.3,1.4-3.4,2.1
		c-2,1.2-2.9,3.7-2.2,5.9c0.1,0.3,0.2,0.6,0.3,0.9c0,0,0,0,0,0c-5.3,2.2-11,3.4-17.1,3.4C26.7,94.1,7.6,76,6,53.1
		c4.6,0.3,13.6-1.1,14.1-6.2v0c0,0,0-0.1,0-0.1c0-0.2,0.1-0.6,0.1-1.6c0-2.5,1.3-4.3,3.8-5.1v15.6h3.3l4.6-11.6v11.6h3.3l6.3-17
		h-1.6l-5,14v-14H32l-4.8,14l-0.2-14c-0.3,0-0.6,0-0.9,0c-3.8,0-8,2.9-8,5.9c0,0.7,0.1,1.3,0.3,1.6c0.1,2.6-3.7,4.1-5.7,4.7
		c-2.2,0.7-4.5,0.9-6.8,0.6c0-0.5,0-1,0-1.5C5.9,25.7,25.7,5.9,50,5.9c22.9,0,41.8,17.5,43.9,39.8c-3,0.1-5.7,1.1-8.1,2.9
		c-3.5,2.8-6.5,4.8-10.7,5.1c0,0,0-0.1,0-0.1c-0.2,0.1-0.4,0.1-0.6,0.1c-0.6,0-0.8-0.4-0.8-0.8c0-0.2,0-0.5,0.1-0.8l2.6-12.3
		l-3.3,0.5l-1,4.7c-0.4-0.3-1-0.6-1.5-0.6c-4.5,0-5.9,4.5-6,8.3c-0.6,0.5-1.3,1-1.8,1c-0.9,0-1.1-0.3-1.1-0.8c0-0.2,0-0.4,0.1-0.7
		l2.6-12.3L61,40.2L58.5,52c-0.1,0.4-0.1,0.8-0.1,1.2c0,1.7,1.1,2.5,2.8,2.5c1,0,2.4-1,3.5-2.1c0.2,1.2,0.9,2.2,2.8,2.2
		c1.4,0,2.4-0.9,3.1-1.9c0.2,1,0.9,1.7,2.3,1.7c0.4,0,0.8,0,1.2-0.3c3.2,0.1,6.4-0.7,9.2-2.5c1.8-1.2,3.3-2.9,5.2-4
		c1.8-1.1,3.8-1.5,5.8-1.5h0.5c0.2,0,0.5,0,0.7,0c0.1,0,0.2,0,0.2,0H98C96.6,22.1,75.6,2,50,2z M70.6,52c-0.1,0.3-0.1,0.5-0.1,0.8
		c-0.4,0.6-0.9,1.1-1.4,1.1c-0.6,0-1.3-0.3-1.3-1.6c0-3.1,1.4-6.7,3.1-6.7c0.3,0,0.7,0.1,1.1,0.4L70.6,52z"/>
	<path class="st1" d="M81.4,91c-2.2-3.6-4.5-7.3-6.7-10.9c-0.2-0.4-0.5-0.6-0.9-0.5c-0.1,0-0.2,0.1-0.3,0.2c-0.3,0.4-0.2,0.7,0,1.1
		c2.2,3.6,4.5,7.2,6.7,10.9c0,0.1,0.1,0.1,0.1,0.2c0.2,0.3,0.6,0.3,0.9,0.1c0.3-0.2,0.4-0.5,0.3-0.8C81.5,91.1,81.4,91,81.4,91z"/>
	<path class="st1" d="M86.4,84.5c0-0.1-0.1-0.2-0.2-0.3c-0.4-0.3-0.8-0.3-1.2,0c-1.7,1.1-3.4,2.1-5,3.1c-0.1,0-0.1,0.1-0.2,0.1
		c0.3,0.5,0.6,0.9,0.8,1.3c0,0,0.1,0,0.1,0c1.8-1.1,3.6-2.2,5.4-3.3c0.3-0.2,0.4-0.5,0.4-0.8C86.4,84.6,86.4,84.5,86.4,84.5z"/>
	<path class="st1" d="M82.5,79.6c0.3-0.2,0.4-0.5,0.4-0.9c0,0,0-0.1,0-0.1c0-0.1-0.1-0.2-0.1-0.2c-0.5-0.3-0.7-0.3-1.2,0
		c-1.7,1-3.4,2.1-5.1,3.1c-0.1,0-0.1,0.1-0.2,0.1c0.3,0.5,0.6,0.9,0.8,1.3c0,0,0.1,0,0.1,0C78.9,81.8,80.7,80.7,82.5,79.6z"/>
</g>
</svg>
